<svg preserveAspectRatio="none" overflow="visible" style="display: block;" width="16" height="16" viewBox="0 0 16 16" fill="none" xmlns="http://www.w3.org/2000/svg">
<g id="Group">
<g id="Vector">
</g>
<path id="Vector_2" d="M13.3333 3.33333C13.5101 3.33333 13.6797 3.40357 13.8047 3.5286C13.9298 3.65362 14 3.82319 14 4C14 4.17681 13.9298 4.34638 13.8047 4.4714C13.6797 4.59643 13.5101 4.66667 13.3333 4.66667H12.6667L12.6647 4.714L12.0427 13.428C12.0187 13.7644 11.8682 14.0792 11.6214 14.309C11.3746 14.5389 11.0499 14.6667 10.7127 14.6667H5.28667C4.94943 14.6667 4.62471 14.5389 4.37792 14.309C4.13114 14.0792 3.98061 13.7644 3.95667 13.428L3.33467 4.71467C3.33366 4.69869 3.33321 4.68268 3.33333 4.66667H2.66667C2.48986 4.66667 2.32029 4.59643 2.19526 4.4714C2.07024 4.34638 2 4.17681 2 4C2 3.82319 2.07024 3.65362 2.19526 3.5286C2.32029 3.40357 2.48986 3.33333 2.66667 3.33333H13.3333ZM9.33333 1.33333C9.51014 1.33333 9.67971 1.40357 9.80474 1.5286C9.92976 1.65362 10 1.82319 10 2C10 2.17681 9.92976 2.34638 9.80474 2.4714C9.67971 2.59643 9.51014 2.66667 9.33333 2.66667H6.66667C6.48986 2.66667 6.32029 2.59643 6.19526 2.4714C6.07024 2.34638 6 2.17681 6 2C6 1.82319 6.07024 1.65362 6.19526 1.5286C6.32029 1.40357 6.48986 1.33333 6.66667 1.33333H9.33333Z" fill="#656F78"/>
</g>
</svg>
