<svg preserveAspectRatio="none" overflow="visible" style="display: block;" width="16" height="16" viewBox="0 0 16 16" fill="none" xmlns="http://www.w3.org/2000/svg">
<g id="Group">
<g id="Vector">
</g>
<path id="Vector_2" d="M14.5433 9.28333C14.2971 10.5341 13.698 11.6882 12.8166 12.6092C11.9353 13.5302 10.8087 14.1796 9.57 14.4807C9.91 14.0793 10.2047 13.5593 10.4493 12.9693C10.6927 12.3827 10.896 11.702 11.0467 10.956C12.1647 10.668 13.1773 10.2253 14.0267 9.65933C14.2053 9.54 14.378 9.41467 14.5433 9.28333ZM1.45667 9.28333C1.622 9.41467 1.79467 9.54 1.97333 9.65933C2.822 10.2253 3.83467 10.668 4.95333 10.956C5.10333 11.702 5.30667 12.3827 5.55067 12.9693C5.79467 13.5587 6.08933 14.0793 6.42933 14.4807C5.19075 14.1795 4.06428 13.5301 3.18309 12.6091C2.30189 11.6881 1.70281 10.534 1.45667 9.28333ZM9.618 11.23C9.5142 11.6489 9.3803 12.0597 9.21733 12.4593C8.986 13.018 8.73133 13.4293 8.49 13.69C8.24333 13.9567 8.074 14 8 14C7.926 14 7.75733 13.9567 7.51 13.69C7.26867 13.43 7.014 13.018 6.78267 12.4593C6.6197 12.0597 6.4858 11.6489 6.382 11.23C6.90733 11.298 7.44867 11.3333 8 11.3333C8.54099 11.3337 9.08144 11.2991 9.618 11.23ZM9.97533 7.15267C10.0275 8.05033 9.99581 8.95089 9.88067 9.84267C9.28267 9.94533 8.652 10 8 10C7.36957 10.0007 6.74022 9.94809 6.11867 9.84267C6.00188 8.95103 5.9704 8.05028 6.02467 7.15267C6.65533 7.27067 7.318 7.33333 8 7.33333C8.6626 7.33406 9.32386 7.27358 9.97533 7.15267ZM14.044 5.18333C14.3507 5.84067 14.554 6.55667 14.6307 7.30933C14.2967 7.758 13.846 8.17733 13.2867 8.54933C12.7067 8.936 12.0227 9.26267 11.2607 9.50733C11.3476 8.61093 11.357 7.70868 11.2887 6.81067C11.9181 6.60144 12.5189 6.31456 13.0773 5.95667C13.425 5.73235 13.7488 5.47324 14.044 5.18333ZM1.956 5.18333C2.24267 5.468 2.56933 5.72667 2.92267 5.95667C3.48101 6.31468 4.08189 6.60157 4.71133 6.81067C4.64322 7.70868 4.65236 8.61088 4.73867 9.50733C3.97667 9.26267 3.29267 8.93667 2.71267 8.55C2.154 8.17733 1.70333 7.758 1.36867 7.30933C1.446 6.556 1.64867 5.84067 1.95533 5.18267L1.956 5.18333ZM8 2C8.07333 2 8.24267 2.044 8.49 2.31067C8.73133 2.57067 8.986 2.98267 9.21733 3.54133C9.47733 4.17 9.69333 4.94667 9.832 5.822C9.25733 5.93733 8.642 6 8 6C7.38474 6.00117 6.77087 5.94155 6.16733 5.822C6.306 4.94667 6.522 4.17 6.78267 3.542C7.014 2.98267 7.26867 2.57133 7.50933 2.31067C7.75733 2.044 7.926 2 8 2ZM9.57 1.51933C11.0725 1.88424 12.4015 2.75968 13.33 3.996C13.046 4.32273 12.7161 4.60657 12.3507 4.83867C11.9643 5.08672 11.5527 5.29299 11.1227 5.454C10.9687 4.54667 10.736 3.724 10.4493 3.03133C10.2047 2.44133 9.91067 1.92067 9.57 1.51933ZM6.43 1.51933C6.09 1.92067 5.79533 2.44133 5.55067 3.03133C5.264 3.72467 5.03067 4.54667 4.87733 5.454C4.44735 5.293 4.0357 5.08673 3.64933 4.83867C3.28367 4.6066 2.95357 4.32276 2.66933 3.996C3.59797 2.75955 4.9273 1.8841 6.43 1.51933Z" fill="#36B55C"/>
</g>
</svg>
