<svg preserveAspectRatio="none" overflow="visible" style="display: block;" width="8" height="11" viewBox="0 0 8 11" fill="none" xmlns="http://www.w3.org/2000/svg">
<g id="maps">
<path id="Subtract" fill-rule="evenodd" clip-rule="evenodd" d="M8 3.9058L7.99994 3.92705C7.99989 3.936 7.99981 3.94495 7.9997 3.9539C7.9999 3.96435 8 3.97488 8 3.98551C8 5.65364 6.70036 7.13022 5.83069 8.11833C5.57833 8.40504 5.36218 8.65063 5.22449 8.84783C4.73469 9.54928 4.47619 10.3092 4.40816 10.6014C4.40816 10.8216 4.22543 11 4 11C3.77457 11 3.59184 10.8216 3.59184 10.6014C3.52381 10.3092 3.26531 9.54928 2.77551 8.84783C2.63781 8.65063 2.42167 8.40504 2.16931 8.11833C1.29964 7.13022 0 5.65364 0 3.98551C0 3.97488 9.96492e-05 3.96435 0.000298948 3.9539C9.96492e-05 3.93789 0 3.92185 0 3.9058C0 1.74868 1.79086 0 4 0C6.20914 0 8 1.74868 8 3.9058ZM4 5.34058C4.8566 5.34058 5.55102 4.66252 5.55102 3.82609C5.55102 2.98966 4.8566 2.31159 4 2.31159C3.1434 2.31159 2.44898 2.98966 2.44898 3.82609C2.44898 4.66252 3.1434 5.34058 4 5.34058Z" fill="#34A851"/>
<path id="Intersect" d="M7.55261 2.10928C7.06281 1.18773 6.20797 0.480886 5.1751 0.171387L2.87783 2.78073C3.16027 2.49176 3.5586 2.31173 3.99999 2.31173C4.85659 2.31173 5.55101 2.98979 5.55101 3.82622C5.55101 4.16744 5.43545 4.48231 5.24045 4.73553L7.55261 2.10928Z" fill="#4285F5"/>
<path id="Intersect_2" d="M2.21553 8.1711C2.20022 8.15369 2.18475 8.13613 2.16914 8.1184C1.59588 7.46708 0.835808 6.60352 0.384277 5.61275L2.77194 2.90076C2.56936 3.15668 2.44881 3.47766 2.44881 3.82616C2.44881 4.66259 3.14323 5.34065 3.99983 5.34065C4.43375 5.34065 4.82605 5.16666 5.10756 4.88623L2.21553 8.1711Z" fill="#F9BB0E"/>
<path id="Subtract_2" d="M0.946439 1.38284C0.356037 2.06345 0 2.94405 0 3.90587C0 3.92192 9.96492e-05 3.93796 0.000298948 3.95397C9.96492e-05 3.96442 0 3.97495 0 3.98558C0 4.55414 0.150979 5.10045 0.384447 5.61275L2.76809 2.90533L0.946439 1.38284Z" fill="#E74335"/>
<path id="Subtract_3" d="M5.17495 0.171272C4.80338 0.0599383 4.40878 0 3.99984 0C2.77571 0 1.68002 0.536934 0.946289 1.38276L2.76794 2.90524L2.7719 2.90074C2.80504 2.85888 2.84036 2.81875 2.87772 2.78053L5.17495 0.171272Z" fill="#1A73E6"/>
</g>
</svg>
