<svg preserveAspectRatio="none" overflow="visible" style="display: block;" width="13.3333" height="12" viewBox="0 0 13.3333 12" fill="none" xmlns="http://www.w3.org/2000/svg">
<g id="pic_fill">
<path d="M10 3.66667C10 4.21895 9.55229 4.66667 9 4.66667C8.44772 4.66667 8 4.21895 8 3.66667C8 3.11438 8.44772 2.66667 9 2.66667C9.55229 2.66667 10 3.11438 10 3.66667Z" fill="#656F78"/>
<path fill-rule="evenodd" clip-rule="evenodd" d="M0 1.33333C0 0.596954 0.596954 0 1.33333 0H12C12.7364 0 13.3333 0.596953 13.3333 1.33333V10.6667C13.3333 11.403 12.7364 12 12 12H1.33333C0.596954 12 0 11.403 0 10.6667V1.33333ZM12 1.33333H1.33333V8.06702L4.6632 4.73715C4.98864 4.41171 5.51627 4.41171 5.84171 4.73715L8.55229 7.44773L9.37725 6.62277C9.70268 6.29733 10.2303 6.29733 10.5558 6.62277L12 8.06701V1.33333Z" fill="#656F78"/>
</g>
</svg>
