<svg preserveAspectRatio="none" overflow="visible" style="display: block;" width="16" height="16" viewBox="0 0 16 16" fill="none" xmlns="http://www.w3.org/2000/svg">
<g id="Group">
<g id="Vector">
</g>
<path id="Vector_2" d="M7.13797 8.862L7.99997 9.724L8.86197 8.862C8.98771 8.74056 9.15611 8.67337 9.33091 8.67488C9.5057 8.6764 9.67291 8.74652 9.79652 8.87012C9.92012 8.99373 9.99024 9.16094 9.99176 9.33573C9.99327 9.51053 9.92608 9.67893 9.80464 9.80467L8.47131 11.138C8.34629 11.263 8.17675 11.3332 7.99997 11.3332C7.8232 11.3332 7.65366 11.263 7.52864 11.138L6.19531 9.80467C6.13163 9.74317 6.08084 9.66961 6.04591 9.58827C6.01097 9.50693 5.99258 9.41945 5.99181 9.33093C5.99104 9.24241 6.00791 9.15463 6.04143 9.0727C6.07495 8.99077 6.12445 8.91633 6.18704 8.85374C6.24964 8.79114 6.32407 8.74164 6.406 8.70812C6.48793 8.6746 6.57572 8.65773 6.66424 8.6585C6.75276 8.65927 6.84024 8.67766 6.92158 8.7126C7.00291 8.74754 7.07648 8.79833 7.13797 8.862ZM7.13797 7.138L7.99997 6.276L8.86197 7.138C8.98771 7.25944 9.15611 7.32663 9.33091 7.32512C9.5057 7.3236 9.67291 7.25348 9.79652 7.12988C9.92012 7.00627 9.99024 6.83907 9.99176 6.66427C9.99327 6.48947 9.92608 6.32107 9.80464 6.19533L8.47131 4.862C8.34629 4.73702 8.17675 4.66681 7.99997 4.66681C7.8232 4.66681 7.65366 4.73702 7.52864 4.862L6.19531 6.19533C6.07387 6.32107 6.00667 6.48947 6.00819 6.66427C6.00971 6.83907 6.07982 7.00627 6.20343 7.12988C6.32703 7.25348 6.49424 7.3236 6.66904 7.32512C6.84384 7.32663 7.01224 7.25944 7.13797 7.138Z" fill="#EBD9FF"/>
</g>
</svg>
